HIERARCHY
ROOT Hips
{
	OFFSET 0.000000 0.794594 0.001814
	CHANNELS 6 Xposition Yposition Zposition Zrotation Xrotation Yrotation
	JOINT Spine
	{
		OFFSET -0.000000 0.051920 0.010783
		CHANNELS 3 Zrotation Xrotation Yrotation
		JOINT Chest
		{
			OFFSET 0.000000 0.111800 0.002643
			CHANNELS 3 Zrotation Xrotation Yrotation
			JOINT UpperChest
			{
				OFFSET 0.000011 0.124994 0.000757
				CHANNELS 3 Zrotation Xrotation Yrotation
				JOINT Neck
				{
					OFFSET 0.000112 0.117645 -0.020286
					CHANNELS 3 Zrotation Xrotation Yrotation
					JOINT Head
					{
						OFFSET 0.000009 0.074358 -0.000161
						CHANNELS 3 Zrotation Xrotation Yrotation
						JOINT LeftEye
						{
							OFFSET 0.019846 0.051735 0.040589
							CHANNELS 3 Zrotation Xrotation Yrotation
							End Site
							{
								OFFSET -0.000199 0.054090 0.042333
							}
						}
						JOINT RightEye
						{
							OFFSET -0.020226 0.051740 0.040395
							CHANNELS 3 Zrotation Xrotation Yrotation
							End Site
							{
								OFFSET -0.000199 0.054090 0.042333
							}
						}
					}
				}
				JOINT LeftShoulder
				{
					OFFSET 0.022481 0.089795 -0.017340
					CHANNELS 3 Zrotation Xrotation Yrotation
					JOINT LeftUpperArm
					{
						OFFSET 0.087730 -0.000010 0.000425
						CHANNELS 3 Zrotation Xrotation Yrotation
						JOINT LeftLowerArm
						{
							OFFSET 0.210368 -0.000024 0.001018
							CHANNELS 3 Zrotation Xrotation Yrotation
							JOINT LeftHand
							{
								OFFSET 0.205447 -0.000023 0.000995
								CHANNELS 3 Zrotation Xrotation Yrotation
								JOINT LeftIndexProximal
								{
									OFFSET 0.064530 0.001495 0.020207
									CHANNELS 3 Zrotation Xrotation Yrotation
									JOINT LeftIndexIntermediate
									{
										OFFSET 0.033222 -0.000004 0.000161
										CHANNELS 3 Zrotation Xrotation Yrotation
										JOINT LeftIndexDistal
										{
											OFFSET 0.020455 -0.000002 0.000099
											CHANNELS 3 Zrotation Xrotation Yrotation
											End Site
											{
												OFFSET 0.020455 -0.000002 0.000099
											}
										}
									}
								}
								JOINT LeftLittleProximal
								{
									OFFSET 0.062810 -0.001965 -0.027941
									CHANNELS 3 Zrotation Xrotation Yrotation
									JOINT LeftLittleIntermediate
									{
										OFFSET 0.031399 -0.000004 0.000152
										CHANNELS 3 Zrotation Xrotation Yrotation
										JOINT LeftLittleDistal
										{
											OFFSET 0.018096 -0.000002 0.000088
											CHANNELS 3 Zrotation Xrotation Yrotation
											End Site
											{
												OFFSET 0.018096 -0.000002 0.000088
											}
										}
									}
								}
								JOINT LeftMiddleProximal
								{
									OFFSET 0.066616 0.003770 0.003447
									CHANNELS 3 Zrotation Xrotation Yrotation
									JOINT LeftMiddleIntermediate
									{
										OFFSET 0.037006 -0.000004 0.000179
										CHANNELS 3 Zrotation Xrotation Yrotation
										JOINT LeftMiddleDistal
										{
											OFFSET 0.022829 -0.000003 0.000111
											CHANNELS 3 Zrotation Xrotation Yrotation
											End Site
											{
												OFFSET 0.022829 -0.000003 0.000111
											}
										}
									}
								}
								JOINT LeftRingProximal
								{
									OFFSET 0.066883 0.003312 -0.012295
									CHANNELS 3 Zrotation Xrotation Yrotation
									JOINT LeftRingIntermediate
									{
										OFFSET 0.034327 -0.000004 0.000166
										CHANNELS 3 Zrotation Xrotation Yrotation
										JOINT LeftRingDistal
										{
											OFFSET 0.019811 -0.000002 0.000096
											CHANNELS 3 Zrotation Xrotation Yrotation
											End Site
											{
												OFFSET 0.019811 -0.000002 0.000096
											}
										}
									}
								}
								JOINT LeftThumbProximal
								{
									OFFSET 0.001872 -0.006642 0.017855
									CHANNELS 3 Zrotation Xrotation Yrotation
									JOINT LeftThumbIntermediate
									{
										OFFSET 0.032244 -0.005707 0.033063
										CHANNELS 3 Zrotation Xrotation Yrotation
										JOINT LeftThumbDistal
										{
											OFFSET 0.020631 -0.005083 0.019180
											CHANNELS 3 Zrotation Xrotation Yrotation
											End Site
											{
												OFFSET 0.020631 -0.005083 0.019180
											}
										}
									}
								}
							}
						}
					}
				}
				JOINT RightShoulder
				{
					OFFSET -0.022291 0.089803 -0.017557
					CHANNELS 3 Zrotation Xrotation Yrotation
					JOINT RightUpperArm
					{
						OFFSET -0.087729 0.000010 -0.000425
						CHANNELS 3 Zrotation Xrotation Yrotation
						JOINT RightLowerArm
						{
							OFFSET -0.210400 0.000024 -0.001019
							CHANNELS 3 Zrotation Xrotation Yrotation
							JOINT RightHand
							{
								OFFSET -0.205447 0.000024 -0.000995
								CHANNELS 3 Zrotation Xrotation Yrotation
								JOINT RightIndexProximal
								{
									OFFSET -0.064723 0.001510 0.019581
									CHANNELS 3 Zrotation Xrotation Yrotation
									JOINT RightIndexIntermediate
									{
										OFFSET -0.033222 0.000004 -0.000161
										CHANNELS 3 Zrotation Xrotation Yrotation
										JOINT RightIndexDistal
										{
											OFFSET -0.020455 0.000002 -0.000099
											CHANNELS 3 Zrotation Xrotation Yrotation
											End Site
											{
												OFFSET -0.020455 0.000002 -0.000099
											}
										}
									}
								}
								JOINT RightLittleProximal
								{
									OFFSET -0.062537 -0.001951 -0.028548
									CHANNELS 3 Zrotation Xrotation Yrotation
									JOINT RightLittleIntermediate
									{
										OFFSET -0.031399 0.000004 -0.000152
										CHANNELS 3 Zrotation Xrotation Yrotation
										JOINT RightLittleDistal
										{
											OFFSET -0.018096 0.000002 -0.000088
											CHANNELS 3 Zrotation Xrotation Yrotation
											End Site
											{
												OFFSET -0.018096 0.000002 -0.000088
											}
										}
									}
								}
								JOINT RightMiddleProximal
								{
									OFFSET -0.066645 0.003785 0.002802
									CHANNELS 3 Zrotation Xrotation Yrotation
									JOINT RightMiddleIntermediate
									{
										OFFSET -0.037006 0.000004 -0.000179
										CHANNELS 3 Zrotation Xrotation Yrotation
										JOINT RightMiddleDistal
										{
											OFFSET -0.022829 0.000003 -0.000110
											CHANNELS 3 Zrotation Xrotation Yrotation
											End Site
											{
												OFFSET -0.022829 0.000003 -0.000111
											}
										}
									}
								}
								JOINT RightRingProximal
								{
									OFFSET -0.066760 0.003327 -0.012943
									CHANNELS 3 Zrotation Xrotation Yrotation
									JOINT RightRingIntermediate
									{
										OFFSET -0.034327 0.000004 -0.000166
										CHANNELS 3 Zrotation Xrotation Yrotation
										JOINT RightRingDistal
										{
											OFFSET -0.019810 0.000002 -0.000096
											CHANNELS 3 Zrotation Xrotation Yrotation
											End Site
											{
												OFFSET -0.019810 0.000002 -0.000096
											}
										}
									}
								}
								JOINT RightThumbProximal
								{
									OFFSET -0.002047 -0.006641 0.017836
									CHANNELS 3 Zrotation Xrotation Yrotation
									JOINT RightThumbIntermediate
									{
										OFFSET -0.032565 -0.005700 0.032749
										CHANNELS 3 Zrotation Xrotation Yrotation
										JOINT RightThumbDistal
										{
											OFFSET -0.020816 -0.005081 0.018978
											CHANNELS 3 Zrotation Xrotation Yrotation
											End Site
											{
												OFFSET -0.020815 -0.005081 0.018979
											}
										}
									}
								}
							}
						}
					}
				}
			}
		}
	}
	JOINT LeftUpperLeg
	{
		OFFSET 0.077122 -0.039594 -0.005714
		CHANNELS 3 Zrotation Xrotation Yrotation
		JOINT LeftLowerLeg
		{
			OFFSET 0.000000 -0.343087 0.003688
			CHANNELS 3 Zrotation Xrotation Yrotation
			JOINT LeftFoot
			{
				OFFSET 0.000000 -0.401029 -0.031321
				CHANNELS 3 Zrotation Xrotation Yrotation
				JOINT LeftToes
				{
					OFFSET 0.000000 -0.001591 0.127952
					CHANNELS 3 Zrotation Xrotation Yrotation
					End Site
					{
						OFFSET -0.000000 -0.001591 0.127952
					}
				}
			}
		}
	}
	JOINT RightUpperLeg
	{
		OFFSET -0.077122 -0.039594 -0.005714
		CHANNELS 3 Zrotation Xrotation Yrotation
		JOINT RightLowerLeg
		{
			OFFSET -0.000000 -0.343087 0.003689
			CHANNELS 3 Zrotation Xrotation Yrotation
			JOINT RightFoot
			{
				OFFSET 0.000000 -0.401030 -0.031318
				CHANNELS 3 Zrotation Xrotation Yrotation
				JOINT RightToes
				{
					OFFSET -0.000000 -0.001590 0.127952
					CHANNELS 3 Zrotation Xrotation Yrotation
					End Site
					{
						OFFSET 0.000000 -0.001590 0.127952
					}
				}
			}
		}
	}
}
MOTION
Frames: 4
Frame Time: 0.016667
-0.004477 0.795569 0.016976 1.480422 0.761592 -7.774251 0.177305 0.060014 -0.783779 3.868985 -3.821370 -0.291221 0.173735 -3.819099 -0.174646 -4.819020 -2.891710 -1.445938 -9.783562 7.890446 5.731009 -0.000001 -0.000004 -0.000001 -0.000001 -0.000004 -0.000001 -4.294122 -0.193431 -0.735167 -42.675063 45.011780 -35.485350 -10.943472 12.753761 -68.576807 -13.052905 11.316391 -4.507304 -12.859980 -2.156448 4.349069 -22.063032 -0.584563 -3.896782 -22.063412 -0.584562 -3.896754 -15.223607 3.747540 -12.713418 -22.165545 0.162808 -3.134343 -22.165986 0.162811 -3.134338 -16.380137 -0.617107 -0.643629 -22.165658 0.162857 -3.134486 -22.165922 0.162826 -3.134509 -16.075405 0.959329 -4.916575 -22.165702 0.162849 -3.134478 -22.165905 0.162834 -3.134460 3.893507 -22.392591 16.145749 -4.403015 1.321733 21.771646 -2.046901 0.600274 11.186634 3.929204 0.322692 0.161087 37.485161 59.985180 42.311721 -0.672261 -0.224950 34.018273 4.589956 30.566435 9.629985 31.938204 -2.934653 0.512188 31.578686 -0.368730 5.590665 31.579257 -0.368723 5.590641 31.124264 4.107200 9.348789 31.714078 0.601859 4.421740 31.714867 0.601834 4.421744 31.913250 -1.385454 1.669705 31.714467 0.601882 4.421966 31.714798 0.601904 4.421934 31.714498 0.601710 4.421682 31.714501 0.601855 4.421971 31.714843 0.601860 4.421981 -6.921554 -4.790345 -13.871149 4.858613 1.359493 -23.927444 3.636195 0.782881 -19.580476 -1.954719 -3.711683 -6.738920 0.001693 9.644352 0.017244 -5.228201 -3.143624 2.564530 -0.000000 -0.000000 -0.000000 -1.087689 -1.413099 26.215612 -0.000016 12.030969 -0.017072 4.861303 -4.859751 -2.349575 0.000000 -0.000001 0.000000 
-0.004454 0.795568 0.016948 1.460662 0.759932 -7.838644 0.182544 0.083646 -0.833157 3.888038 -3.826584 -0.300728 0.202916 -3.824331 -0.188620 -4.785638 -2.905751 -1.450723 -9.661227 7.844891 5.720822 0.000000 -0.000004 -0.000001 0.000000 -0.000004 -0.000001 -4.135870 -0.258002 -0.789577 -43.053995 45.022749 -35.316422 -10.957347 12.709057 -68.450257 -12.991576 11.426942 -4.474611 -12.879428 -2.158684 4.345628 -22.115828 -0.584134 -3.906264 -22.116205 -0.584125 -3.906242 -15.242803 3.751482 -12.714880 -22.218544 0.164667 -3.141693 -22.218964 0.164664 -3.141670 -16.399713 -0.617244 -0.646548 -22.218643 0.164667 -3.141855 -22.218872 0.164677 -3.141825 -16.094921 0.960597 -4.918984 -22.218694 0.164672 -3.141792 -22.218891 0.164689 -3.141808 3.891981 -22.392574 16.141047 -4.402108 1.321624 21.767333 -2.068096 0.604278 11.299602 4.027679 0.391452 0.101083 37.079533 59.930901 42.670166 -0.671029 -0.223157 33.929262 4.603705 30.391770 9.690955 31.938228 -2.934665 0.512179 31.578645 -0.368724 5.590672 31.579253 -0.368728 5.590675 31.124281 4.107142 9.348757 31.714105 0.601853 4.421738 31.714880 0.601871 4.421756 31.913222 -1.385459 1.669700 31.714488 0.601892 4.421976 31.714802 0.601901 4.421954 31.714494 0.601691 4.421652 31.714505 0.601851 4.421962 31.714819 0.601873 4.421958 -6.921546 -4.790335 -13.871168 4.858580 1.359475 -23.927442 3.636174 0.782879 -19.580493 -1.955308 -3.728043 -6.652469 0.001759 9.699955 0.018170 -5.377589 -3.153043 2.571452 -0.000000 0.000001 -0.000000 -1.052607 -1.373443 26.319470 -0.022821 12.000422 -0.017854 4.978201 -4.815266 -2.360116 0.000000 0.000000 -0.000001 
-0.004436 0.795563 0.016930 1.451678 0.764571 -7.906203 0.180505 0.102018 -0.876066 3.907905 -3.832088 -0.309070 0.217962 -3.825547 -0.194809 -4.770104 -2.911906 -1.453013 -9.604112 7.822822 5.716014 0.000000 -0.000001 0.000001 0.000000 -0.000001 0.000001 -4.061263 -0.283987 -0.808795 -43.220952 45.025468 -35.255924 -10.964901 12.685218 -68.382905 -12.958891 11.473731 -4.465954 -12.889556 -2.159861 4.343788 -22.143455 -0.583892 -3.911223 -22.143799 -0.583896 -3.911190 -15.252828 3.753521 -12.715668 -22.246259 0.165608 -3.145525 -22.246645 0.165611 -3.145491 -16.409912 -0.617353 -0.648134 -22.246360 0.165641 -3.145650 -22.246614 0.165648 -3.145659 -16.105103 0.961268 -4.920260 -22.246385 0.165654 -3.145634 -22.246648 0.165653 -3.145635 3.891251 -22.392587 16.138629 -4.401682 1.321574 21.765164 -2.078853 0.606314 11.357073 4.074078 0.424872 0.071417 36.874634 59.904830 42.857842 -0.670561 -0.222135 33.877489 4.615766 30.311720 9.716346 31.938228 -2.934658 0.512188 31.578649 -0.368746 5.590684 31.579243 -0.368733 5.590652 31.124260 4.107158 9.348805 31.714112 0.601850 4.421731 31.714874 0.601861 4.421714 31.913229 -1.385499 1.669679 31.714518 0.601933 4.421963 31.714795 0.601891 4.421936 31.714474 0.601678 4.421692 31.714518 0.601850 4.421948 31.714829 0.601860 4.421932 -6.921532 -4.790348 -13.871137 4.858582 1.359500 -23.927459 3.636222 0.782860 -19.580506 -1.955964 -3.750514 -6.606588 0.000924 9.738042 0.018669 -5.456996 -3.155987 2.575128 0.000000 0.000000 -0.000000 -1.034983 -1.374026 26.374173 -0.024700 12.001354 -0.018192 5.039192 -4.797421 -2.365219 0.000000 0.000001 -0.000002 
-0.004417 0.795562 0.016905 1.444032 0.775617 -7.974834 0.179220 0.115320 -0.914503 3.928298 -3.840457 -0.316209 0.233400 -3.825705 -0.200091 -4.755163 -2.917977 -1.455391 -9.549918 7.801007 5.711361 0.000001 -0.000003 -0.000000 0.000001 -0.000003 -0.000000 -3.992001 -0.304050 -0.820814 -43.366643 45.026523 -35.216910 -10.972415 12.660139 -68.311973 -12.922681 11.512125 -4.468299 -12.900215 -2.161091 4.341874 -22.172206 -0.583665 -3.916390 -22.172592 -0.583661 -3.916382 -15.263333 3.755643 -12.716483 -22.275115 0.166620 -3.149504 -22.275562 0.166613 -3.149503 -16.420593 -0.617444 -0.649727 -22.275299 0.166671 -3.149678 -22.275492 0.166647 -3.149620 -16.115794 0.962002 -4.921578 -22.275287 0.166651 -3.149635 -22.275521 0.166646 -3.149625 3.890420 -22.392572 16.136187 -4.401163 1.321550 21.762934 -2.089839 0.608338 11.415590 4.118893 0.458823 0.040708 36.662140 59.878076 43.056276 -0.669605 -0.221018 33.822834 4.634890 30.243811 9.735027 31.938248 -2.934649 0.512194 31.578635 -0.368725 5.590676 31.579253 -0.368736 5.590665 31.124277 4.107175 9.348792 31.714105 0.601818 4.421740 31.714894 0.601851 4.421769 31.913236 -1.385462 1.669689 31.714491 0.601918 4.421968 31.714819 0.601896 4.421945 31.714501 0.601705 4.421685 31.714505 0.601852 4.421954 31.714819 0.601899 4.421933 -6.921523 -4.790353 -13.871127 4.858607 1.359492 -23.927438 3.636198 0.782884 -19.580501 -1.957985 -3.748619 -6.560492 0.004144 9.747672 0.019109 -5.537983 -3.159660 2.578722 0.000000 0.000000 -0.000001 -1.017347 -1.431912 26.429311 -0.003330 12.049092 -0.018462 5.101162 -4.782473 -2.370135 0.000001 -0.000000 -0.000002 
